name C:\Users\Nicos\Documents\OpenSimProjects\SprintingProject\Study1\PredictiveResults\IC_pred_Sprinting_optimum_26-October-2023__20-13-02___IKTD_Plus_6_p02_maxVel_01.mot
datacolumns 38
datarows 8
range 0.10881231 0.11511933
endheader
                time	/jointset/ground_pelvis/pelvis_tilt/value	/jointset/ground_pelvis/pelvis_list/value	/jointset/ground_pelvis/pelvis_rotation/value	/jointset/ground_pelvis/pelvis_tx/value	/jointset/ground_pelvis/pelvis_ty/value	/jointset/ground_pelvis/pelvis_tz/value	/jointset/hip_r/hip_flexion_r/value	/jointset/hip_r/hip_adduction_r/value	/jointset/hip_r/hip_rotation_r/value	/jointset/knee_r/knee_angle_r/value	/jointset/ankle_r/ankle_angle_r/value	/jointset/subtalar_r/subtalar_angle_r/value	/jointset/mtp_r/mtp_angle_r/value	/jointset/hip_l/hip_flexion_l/value	/jointset/hip_l/hip_adduction_l/value	/jointset/hip_l/hip_rotation_l/value	/jointset/knee_l/knee_angle_l/value	/jointset/ankle_l/ankle_angle_l/value	/jointset/subtalar_l/subtalar_angle_l/value	/jointset/mtp_l/mtp_angle_l/value	/jointset/back/lumbar_extension/value	/jointset/back/lumbar_bending/value	/jointset/back/lumbar_rotation/value	/jointset/acromial_r/arm_flex_r/value	/jointset/acromial_r/arm_add_r/value	/jointset/acromial_r/arm_rot_r/value	/jointset/elbow_r/elbow_flex_r/value	/jointset/radioulnar_r/pro_sup_r/value	/jointset/radius_hand_r/wrist_flex_r/value	/jointset/radius_hand_r/wrist_dev_r/value	/jointset/acromial_l/arm_flex_l/value	/jointset/acromial_l/arm_add_l/value	/jointset/acromial_l/arm_rot_l/value	/jointset/elbow_l/elbow_flex_l/value	/jointset/radioulnar_l/pro_sup_l/value	/jointset/radius_hand_l/wrist_flex_l/value	/jointset/radius_hand_l/wrist_dev_l/value	
          0.10881231	         -9.16761747	          4.40424002	        -17.94245220	          0.63431459	          0.96188953	          0.30559401	          6.95333919	         -6.22378099	          9.84776517	        -26.66639501	         12.15141992	         -8.33552756	         13.84733460	         57.17181078	        -11.01939355	         -8.15794841	       -136.38888253	          3.38431570	        -23.91988010	          6.67555240	        -11.67289335	         -0.40931002	          7.32052109	         61.81347873	        -15.52707880	        -13.10822475	        115.38766014	         88.48343208	        -16.88448938	          7.09953465	        -52.42987416	        -13.14844668	         -0.88358815	         88.44597683	         87.80343724	        -26.02235138	          5.38342612	
          0.11029520	         -9.16234672	          4.69624706	        -17.83153959	          0.65233325	          0.96147024	          0.30530225	          6.34565292	         -6.84011540	          9.58708750	        -27.18752529	         11.35242652	         -8.56653027	         13.08500373	         58.42277276	        -10.63219131	         -7.85637591	       -136.24108515	          3.43608584	        -23.85413723	          7.57216442	        -11.49676452	         -0.71251797	          7.28524418	         63.26183436	        -14.97686859	        -12.56637825	        115.74913304	         88.27596565	        -16.67451732	          7.23648161	        -53.96415928	        -12.92909877	         -1.19449395	         89.36536792	         88.27262625	        -26.17526090	          5.34708799	
          0.11029520	         -9.16234672	          4.69624706	        -17.83153959	          0.65233325	          0.96147024	          0.30530225	          6.34565292	         -6.84011540	          9.58708750	        -27.18752529	         11.35242652	         -8.56653027	         13.08500373	         58.42277276	        -10.63219131	         -7.85637591	       -136.24108515	          3.43608584	        -23.85413723	          7.57216442	        -11.49676452	         -0.71251797	          7.28524418	         63.26183436	        -14.97686859	        -12.56637825	        115.74913304	         88.27596565	        -16.67451732	          7.23648161	        -53.96415928	        -12.92909877	         -1.19449395	         89.36536792	         88.27262625	        -26.17526090	          5.34708799	
          0.11094278	         -9.16146562	          4.82248185	        -17.78081559	          0.66020493	          0.96129439	          0.30517595	          6.08588453	         -7.10708744	          9.46431646	        -27.41867070	         10.96925715	         -8.67396983	         12.74363799	         58.96544863	        -10.46486570	         -7.72795344	       -136.16288614	          3.45453441	        -23.82469654	          7.95778005	        -11.41869105	         -0.84374011	          7.26839613	         63.88402188	        -14.73659178	        -12.31469733	        115.87873662	         88.18582490	        -16.58196728	          7.29446985	        -54.62666608	        -12.83350088	         -1.33470910	         89.74761746	         88.45812215	        -26.24151104	          5.33115585	
          0.11298886	         -9.15034288	          5.20220226	        -17.61009777	          0.68508976	          0.96079125	          0.30477700	          5.26460823	         -7.93138249	          9.04418030	        -28.15422111	          9.60677362	         -9.04366881	         11.62996565	         60.64728423	         -9.94752112	         -7.32747705	       -135.86215683	          3.49452664	        -23.73357003	          9.14792312	        -11.18890115	         -1.24189118	          7.20859175	         65.81330096	        -13.97706825	        -11.47143030	        116.16996473	         87.90454998	        -16.28591775	          7.47060887	        -56.68001487	        -12.53267551	         -1.78060819	         90.86626222	         88.96831421	        -26.44854822	          5.27935550	
          0.11447175	         -9.13104932	          5.45267527	        -17.48405150	          0.70313089	          0.96048271	          0.30449580	          4.66576539	         -8.50263837	          8.72260787	        -28.69110681	          8.48383122	         -9.34576085	         10.71640556	         61.82797463	         -9.59389096	         -7.04103367	       -135.59420013	          3.50661590	        -23.66987642	          9.97563363	        -11.04510096	         -1.50944266	          7.16712942	         67.17793537	        -13.42710152	        -10.82567075	        116.26530457	         87.70888514	        -16.06747719	          7.59050664	        -58.12300326	        -12.31668099	         -2.09501399	         91.58156683	         89.27331389	        -26.59622762	          5.23945661	
          0.11447175	         -9.13104932	          5.45267527	        -17.48405150	          0.70313089	          0.96048271	          0.30449580	          4.66576539	         -8.50263837	          8.72260787	        -28.69110681	          8.48383122	         -9.34576085	         10.71640556	         61.82797463	         -9.59389096	         -7.04103367	       -135.59420013	          3.50661590	        -23.66987642	          9.97563363	        -11.04510096	         -1.50944266	          7.16712942	         67.17793537	        -13.42710152	        -10.82567075	        116.26530457	         87.70888514	        -16.06747719	          7.59050664	        -58.12300326	        -12.31668099	         -2.09501399	         91.58156683	         89.27331389	        -26.59622762	          5.23945661	
          0.11511933	         -9.11879043	          5.55399552	        -17.43025042	          0.71100929	          0.96036431	          0.30437699	          4.40249823	         -8.74340115	          8.58096116	        -28.92626066	          7.95888467	         -9.48910458	         10.27473881	         62.33170698	         -9.44758731	         -6.91666887	       -135.46422132	          3.50754923	        -23.64280911	         10.32611396	        -10.98998305	         -1.61951512	          7.15145599	         67.76528456	        -13.18723891	        -10.53744133	        116.27557902	         87.62652498	        -15.97099831	          7.64064258	        -58.73958001	        -12.22312654	         -2.22716698	         91.86659885	         89.39340261	        -26.66002657	          5.22044125	
